Source Code [2011] TS Rip XviD D3MT


An action thriller centered on a soldier who wakes up in the body of an unknown man and discovers he\'s part of a mission to find the bomber of a Chicago commuter train.
 
http://www.imdb.com/title/tt0945513/

You are required to register atto download this torrent.
The owner of the site would like to assure you that we do not charge to register and you are free to download.
Any of our torrents providing you keep to the site rules which are to keep a 1:1 ratio.
We have some of the latest movies/music/software/games to download at excellent speeds.
Pop into our shoutbox for a chat with OUR friendly and helpful staff. Join our new site with a refreshing attitude towards sharing


Info:

Format                           : AVI
Format/Info                      : Audio Video Interleave
File size                        : 762 MiB
Duration                         : 1h 26mn
Overall bit rate                 : 1 236 Kbps
Writing application              : Lavf52.39.1

Video
ID                               : 0
Format                           : xvid
Codec ID                         : xvid
Duration                         : 1h 26mn
Bit rate                         : 1 159 Kbps
Width                            : 624 pixels
Height                           : 272 pixels
Display aspect ratio             : 2.25:1
Frame rate                       : 25.000 fps
Bits/(Pixel*Frame)               : 0.273
Stream size                      : 714 MiB (94%)

Audio
ID                               : 1
Format                           : MPEG Audio
Format version                   : Version 1
Format profile                   : Layer 3
Mode                             : Joint stereo
Mode extension                   : MS Stereo
Codec ID                         : 55
Codec ID/Hint                    : MP3
Duration                         : 1h 26mn
Bit rate mode                    : Constant
Bit rate                         : 64.0 Kbps
Channel(s)                       : 2 channels
Sampling rate                    : 44.1 KHz
Compression mode                 : Lossy
Stream size                      : 39.4 MiB (5%)
Alignment                        : Aligned on interleaves
Interleave, duration             : 26 ms (0.65 video frame)
Interleave, preload duration     : 26 ms